<?xml version="1.0" encoding="utf-8" standalone="no"?>
<!DOCTYPE svg PUBLIC "-//W3C//DTD SVG 1.1//EN"
  "http://www.w3.org/Graphics/SVG/1.1/DTD/svg11.dtd">
<!-- Created with matplotlib (https://matplotlib.org/) -->
<svg height="166.978125pt" version="1.1" viewBox="0 0 232.603125 166.978125" width="232.603125pt" xmlns="http://www.w3.org/2000/svg" xmlns:xlink="http://www.w3.org/1999/xlink">
 <defs>
  <style type="text/css">
*{stroke-linecap:butt;stroke-linejoin:round;}
  </style>
 </defs>
 <g id="figure_1">
  <g id="patch_1">
   <path d="M 0 166.978125 
L 232.603125 166.978125 
L 232.603125 0 
L 0 0 
z
" style="fill:none;"/>
  </g>
  <g id="axes_1">
   <g id="patch_2">
    <path d="M 30.103125 143.1 
L 225.403125 143.1 
L 225.403125 7.2 
L 30.103125 7.2 
z
" style="fill:#ffffff;"/>
   </g>
   <g id="PolyCollection_1">
    <path clip-path="url(#pcc43c3d1f2)" d="M 61.229202 136.922727 
L 61.229202 123.901133 
L 61.674177 123.505907 
L 62.119153 123.101453 
L 62.564128 122.687652 
L 63.009104 122.264394 
L 63.45408 121.83157 
L 63.899055 121.389071 
L 64.344031 120.936798 
L 64.789007 120.474642 
L 65.233982 120.002516 
L 65.678958 119.520314 
L 66.123939 119.027945 
L 66.568915 118.525331 
L 67.01389 118.012381 
L 67.458866 117.48902 
L 67.903842 116.955167 
L 68.348817 116.410747 
L 68.793793 115.855704 
L 69.238774 115.289957 
L 69.683749 114.713468 
L 70.128725 114.126174 
L 70.573701 113.528034 
L 71.018676 112.918998 
L 71.463652 112.299031 
L 71.908628 111.668107 
L 72.353603 111.026193 
L 72.798579 110.373275 
L 73.243555 109.709338 
L 73.68853 109.034377 
L 74.133506 108.348389 
L 74.578482 107.651381 
L 75.023457 106.943371 
L 75.468433 106.224375 
L 75.913409 105.494422 
L 76.358384 104.753546 
L 76.80336 104.001789 
L 77.248336 103.2392 
L 77.693317 102.46583 
L 78.138292 101.681765 
L 78.583268 100.887062 
L 79.028243 100.08181 
L 79.473219 99.266098 
L 79.918195 98.440018 
L 80.363176 97.603672 
L 80.808151 96.757194 
L 81.253127 95.900693 
L 81.698103 95.034318 
L 82.143078 94.158192 
L 82.588054 93.272468 
L 83.03303 92.377314 
L 83.478005 91.472893 
L 83.922981 90.559385 
L 84.367957 89.636971 
L 84.812932 88.705848 
L 85.257908 87.766228 
L 85.702884 86.818316 
L 86.147859 85.86234 
L 86.592835 84.898525 
L 87.03781 83.927123 
L 87.482791 82.948363 
L 87.927767 81.962531 
L 88.372743 80.969887 
L 88.817718 79.970707 
L 89.262694 78.965276 
L 89.70767 77.95389 
L 90.152645 76.936854 
L 90.597621 75.914482 
L 91.042597 74.887087 
L 91.487572 73.85501 
L 91.932548 72.81858 
L 92.377524 71.778152 
L 92.822499 70.734078 
L 93.26748 69.686698 
L 93.712456 68.636425 
L 94.157432 67.583618 
L 94.602407 66.528646 
L 95.047383 65.471928 
L 95.492358 64.413842 
L 95.937334 63.354805 
L 96.38231 62.295223 
L 96.827285 61.235523 
L 97.272261 60.176133 
L 97.717237 59.117465 
L 98.162212 58.059974 
L 98.607188 57.004096 
L 99.052169 55.950258 
L 99.497145 54.898954 
L 99.94212 53.850609 
L 100.387096 52.805689 
L 100.832072 51.764664 
L 101.277047 50.727992 
L 101.722023 49.69615 
L 102.166999 48.669602 
L 102.611974 47.648835 
L 103.05695 46.634321 
L 103.501925 45.626536 
L 103.946901 44.625961 
L 104.391877 43.633089 
L 104.836858 42.648376 
L 105.281833 41.67233 
L 105.726809 40.70543 
L 106.171785 39.748148 
L 106.61676 38.800968 
L 107.061736 37.864371 
L 107.506712 36.938834 
L 107.951687 36.024828 
L 108.396663 35.122826 
L 108.841639 34.233306 
L 109.286614 33.356732 
L 109.73159 32.493552 
L 110.176566 31.644246 
L 110.621547 30.809241 
L 111.066522 29.989014 
L 111.511498 29.183995 
L 111.956473 28.394623 
L 112.401449 27.621335 
L 112.846425 26.864548 
L 113.2914 26.124684 
L 113.736376 25.402155 
L 114.181352 24.697358 
L 114.626327 24.01069 
L 115.071303 23.342536 
L 115.516279 22.693284 
L 115.96126 22.063282 
L 116.406235 21.452912 
L 116.851211 20.862512 
L 117.296187 20.292423 
L 117.741162 19.742974 
L 118.186138 19.214475 
L 118.631114 18.707236 
L 119.076089 18.221559 
L 119.521065 17.757723 
L 119.96604 17.315993 
L 120.411016 16.896642 
L 120.855992 16.499898 
L 121.300967 16.126011 
L 121.745948 15.775189 
L 122.190924 15.447651 
L 122.6359 15.143581 
L 123.080875 14.863164 
L 123.525851 14.60657 
L 123.970827 14.373952 
L 124.415802 14.165436 
L 124.860778 13.981163 
L 125.305754 13.821241 
L 125.750729 13.685753 
L 126.195705 13.574787 
L 126.640681 13.488416 
L 127.085656 13.426684 
L 127.530637 13.389629 
L 127.975613 13.377273 
L 128.420588 13.389629 
L 128.865564 13.426684 
L 129.31054 13.488416 
L 129.755515 13.574787 
L 130.200491 13.685753 
L 130.645467 13.821234 
L 131.090442 13.981163 
L 131.535418 14.165436 
L 131.980394 14.373945 
L 132.425369 14.60657 
L 132.870345 14.863164 
L 133.315321 15.143574 
L 133.760296 15.447643 
L 134.205272 15.775181 
L 134.650248 16.126004 
L 135.095223 16.49989 
L 135.540199 16.896627 
L 135.985185 17.315993 
L 136.430161 17.757723 
L 136.875136 18.221559 
L 137.320112 18.707236 
L 137.765088 19.214475 
L 138.210063 19.742974 
L 138.655039 20.292423 
L 139.100015 20.862512 
L 139.54499 21.452912 
L 139.989966 22.063282 
L 140.434942 22.693277 
L 140.879917 23.342528 
L 141.324893 24.010683 
L 141.769869 24.69735 
L 142.214844 25.40214 
L 142.65982 26.124677 
L 143.104796 26.864541 
L 143.549771 27.621327 
L 143.994747 28.394616 
L 144.439723 29.183987 
L 144.884698 29.989007 
L 145.329674 30.809233 
L 145.774649 31.644224 
L 146.219625 32.493537 
L 146.664601 33.35671 
L 147.109576 34.233284 
L 147.554563 35.122826 
L 147.999538 36.024828 
L 148.444514 36.938834 
L 148.88949 37.864371 
L 149.334465 38.800968 
L 149.779441 39.748148 
L 149.779441 136.922727 
L 149.779441 136.922727 
L 149.334465 136.922727 
L 148.88949 136.922727 
L 148.444514 136.922727 
L 147.999538 136.922727 
L 147.554563 136.922727 
L 147.109576 136.922727 
L 146.664601 136.922727 
L 146.219625 136.922727 
L 145.774649 136.922727 
L 145.329674 136.922727 
L 144.884698 136.922727 
L 144.439723 136.922727 
L 143.994747 136.922727 
L 143.549771 136.922727 
L 143.104796 136.922727 
L 142.65982 136.922727 
L 142.214844 136.922727 
L 141.769869 136.922727 
L 141.324893 136.922727 
L 140.879917 136.922727 
L 140.434942 136.922727 
L 139.989966 136.922727 
L 139.54499 136.922727 
L 139.100015 136.922727 
L 138.655039 136.922727 
L 138.210063 136.922727 
L 137.765088 136.922727 
L 137.320112 136.922727 
L 136.875136 136.922727 
L 136.430161 136.922727 
L 135.985185 136.922727 
L 135.540199 136.922727 
L 135.095223 136.922727 
L 134.650248 136.922727 
L 134.205272 136.922727 
L 133.760296 136.922727 
L 133.315321 136.922727 
L 132.870345 136.922727 
L 132.425369 136.922727 
L 131.980394 136.922727 
L 131.535418 136.922727 
L 131.090442 136.922727 
L 130.645467 136.922727 
L 130.200491 136.922727 
L 129.755515 136.922727 
L 129.31054 136.922727 
L 128.865564 136.922727 
L 128.420588 136.922727 
L 127.975613 136.922727 
L 127.530637 136.922727 
L 127.085656 136.922727 
L 126.640681 136.922727 
L 126.195705 136.922727 
L 125.750729 136.922727 
L 125.305754 136.922727 
L 124.860778 136.922727 
L 124.415802 136.922727 
L 123.970827 136.922727 
L 123.525851 136.922727 
L 123.080875 136.922727 
L 122.6359 136.922727 
L 122.190924 136.922727 
L 121.745948 136.922727 
L 121.300967 136.922727 
L 120.855992 136.922727 
L 120.411016 136.922727 
L 119.96604 136.922727 
L 119.521065 136.922727 
L 119.076089 136.922727 
L 118.631114 136.922727 
L 118.186138 136.922727 
L 117.741162 136.922727 
L 117.296187 136.922727 
L 116.851211 136.922727 
L 116.406235 136.922727 
L 115.96126 136.922727 
L 115.516279 136.922727 
L 115.071303 136.922727 
L 114.626327 136.922727 
L 114.181352 136.922727 
L 113.736376 136.922727 
L 113.2914 136.922727 
L 112.846425 136.922727 
L 112.401449 136.922727 
L 111.956473 136.922727 
L 111.511498 136.922727 
L 111.066522 136.922727 
L 110.621547 136.922727 
L 110.176566 136.922727 
L 109.73159 136.922727 
L 109.286614 136.922727 
L 108.841639 136.922727 
L 108.396663 136.922727 
L 107.951687 136.922727 
L 107.506712 136.922727 
L 107.061736 136.922727 
L 106.61676 136.922727 
L 106.171785 136.922727 
L 105.726809 136.922727 
L 105.281833 136.922727 
L 104.836858 136.922727 
L 104.391877 136.922727 
L 103.946901 136.922727 
L 103.501925 136.922727 
L 103.05695 136.922727 
L 102.611974 136.922727 
L 102.166999 136.922727 
L 101.722023 136.922727 
L 101.277047 136.922727 
L 100.832072 136.922727 
L 100.387096 136.922727 
L 99.94212 136.922727 
L 99.497145 136.922727 
L 99.052169 136.922727 
L 98.607188 136.922727 
L 98.162212 136.922727 
L 97.717237 136.922727 
L 97.272261 136.922727 
L 96.827285 136.922727 
L 96.38231 136.922727 
L 95.937334 136.922727 
L 95.492358 136.922727 
L 95.047383 136.922727 
L 94.602407 136.922727 
L 94.157432 136.922727 
L 93.712456 136.922727 
L 93.26748 136.922727 
L 92.822499 136.922727 
L 92.377524 136.922727 
L 91.932548 136.922727 
L 91.487572 136.922727 
L 91.042597 136.922727 
L 90.597621 136.922727 
L 90.152645 136.922727 
L 89.70767 136.922727 
L 89.262694 136.922727 
L 88.817718 136.922727 
L 88.372743 136.922727 
L 87.927767 136.922727 
L 87.482791 136.922727 
L 87.03781 136.922727 
L 86.592835 136.922727 
L 86.147859 136.922727 
L 85.702884 136.922727 
L 85.257908 136.922727 
L 84.812932 136.922727 
L 84.367957 136.922727 
L 83.922981 136.922727 
L 83.478005 136.922727 
L 83.03303 136.922727 
L 82.588054 136.922727 
L 82.143078 136.922727 
L 81.698103 136.922727 
L 81.253127 136.922727 
L 80.808151 136.922727 
L 80.363176 136.922727 
L 79.918195 136.922727 
L 79.473219 136.922727 
L 79.028243 136.922727 
L 78.583268 136.922727 
L 78.138292 136.922727 
L 77.693317 136.922727 
L 77.248336 136.922727 
L 76.80336 136.922727 
L 76.358384 136.922727 
L 75.913409 136.922727 
L 75.468433 136.922727 
L 75.023457 136.922727 
L 74.578482 136.922727 
L 74.133506 136.922727 
L 73.68853 136.922727 
L 73.243555 136.922727 
L 72.798579 136.922727 
L 72.353603 136.922727 
L 71.908628 136.922727 
L 71.463652 136.922727 
L 71.018676 136.922727 
L 70.573701 136.922727 
L 70.128725 136.922727 
L 69.683749 136.922727 
L 69.238774 136.922727 
L 68.793793 136.922727 
L 68.348817 136.922727 
L 67.903842 136.922727 
L 67.458866 136.922727 
L 67.01389 136.922727 
L 66.568915 136.922727 
L 66.123939 136.922727 
L 65.678958 136.922727 
L 65.233982 136.922727 
L 64.789007 136.922727 
L 64.344031 136.922727 
L 63.899055 136.922727 
L 63.45408 136.922727 
L 63.009104 136.922727 
L 62.564128 136.922727 
L 62.119153 136.922727 
L 61.674177 136.922727 
L 61.229202 136.922727 
z
" style="fill:#1f77b4;"/>
   </g>
   <g id="matplotlib.axis_1">
    <g id="xtick_1">
     <g id="line2d_1">
      <defs>
       <path d="M 0 0 
L 0 3.5 
" id="mae37257ab3" style="stroke:#000000;stroke-width:0.8;"/>
      </defs>
      <g>
       <use style="stroke:#000000;stroke-width:0.8;" x="38.980398" xlink:href="#mae37257ab3" y="143.1"/>
      </g>
     </g>
     <g id="text_1">
      <!-- −2 -->
      <defs>
       <path d="M 10.59375 35.5 
L 73.1875 35.5 
L 73.1875 27.203125 
L 10.59375 27.203125 
z
" id="DejaVuSans-8722"/>
       <path d="M 19.1875 8.296875 
L 53.609375 8.296875 
L 53.609375 0 
L 7.328125 0 
L 7.328125 8.296875 
Q 12.9375 14.109375 22.625 23.890625 
Q 32.328125 33.6875 34.8125 36.53125 
Q 39.546875 41.84375 41.421875 45.53125 
Q 43.3125 49.21875 43.3125 52.78125 
Q 43.3125 58.59375 39.234375 62.25 
Q 35.15625 65.921875 28.609375 65.921875 
Q 23.96875 65.921875 18.8125 64.3125 
Q 13.671875 62.703125 7.8125 59.421875 
L 7.8125 69.390625 
Q 13.765625 71.78125 18.9375 73 
Q 24.125 74.21875 28.421875 74.21875 
Q 39.75 74.21875 46.484375 68.546875 
Q 53.21875 62.890625 53.21875 53.421875 
Q 53.21875 48.921875 51.53125 44.890625 
Q 49.859375 40.875 45.40625 35.40625 
Q 44.1875 33.984375 37.640625 27.21875 
Q 31.109375 20.453125 19.1875 8.296875 
z
" id="DejaVuSans-50"/>
      </defs>
      <g transform="translate(31.609304 157.698438)scale(0.1 -0.1)">
       <use xlink:href="#DejaVuSans-8722"/>
       <use x="83.789062" xlink:href="#DejaVuSans-50"/>
      </g>
     </g>
    </g>
    <g id="xtick_2">
     <g id="line2d_2">
      <g>
       <use style="stroke:#000000;stroke-width:0.8;" x="83.478005" xlink:href="#mae37257ab3" y="143.1"/>
      </g>
     </g>
     <g id="text_2">
      <!-- −1 -->
      <defs>
       <path d="M 12.40625 8.296875 
L 28.515625 8.296875 
L 28.515625 63.921875 
L 10.984375 60.40625 
L 10.984375 69.390625 
L 28.421875 72.90625 
L 38.28125 72.90625 
L 38.28125 8.296875 
L 54.390625 8.296875 
L 54.390625 0 
L 12.40625 0 
z
" id="DejaVuSans-49"/>
      </defs>
      <g transform="translate(76.106912 157.698438)scale(0.1 -0.1)">
       <use xlink:href="#DejaVuSans-8722"/>
       <use x="83.789062" xlink:href="#DejaVuSans-49"/>
      </g>
     </g>
    </g>
    <g id="xtick_3">
     <g id="line2d_3">
      <g>
       <use style="stroke:#000000;stroke-width:0.8;" x="127.975613" xlink:href="#mae37257ab3" y="143.1"/>
      </g>
     </g>
     <g id="text_3">
      <!-- 0 -->
      <defs>
       <path d="M 31.78125 66.40625 
Q 24.171875 66.40625 20.328125 58.90625 
Q 16.5 51.421875 16.5 36.375 
Q 16.5 21.390625 20.328125 13.890625 
Q 24.171875 6.390625 31.78125 6.390625 
Q 39.453125 6.390625 43.28125 13.890625 
Q 47.125 21.390625 47.125 36.375 
Q 47.125 51.421875 43.28125 58.90625 
Q 39.453125 66.40625 31.78125 66.40625 
z
M 31.78125 74.21875 
Q 44.046875 74.21875 50.515625 64.515625 
Q 56.984375 54.828125 56.984375 36.375 
Q 56.984375 17.96875 50.515625 8.265625 
Q 44.046875 -1.421875 31.78125 -1.421875 
Q 19.53125 -1.421875 13.0625 8.265625 
Q 6.59375 17.96875 6.59375 36.375 
Q 6.59375 54.828125 13.0625 64.515625 
Q 19.53125 74.21875 31.78125 74.21875 
z
" id="DejaVuSans-48"/>
      </defs>
      <g transform="translate(124.794363 157.698438)scale(0.1 -0.1)">
       <use xlink:href="#DejaVuSans-48"/>
      </g>
     </g>
    </g>
    <g id="xtick_4">
     <g id="line2d_4">
      <g>
       <use style="stroke:#000000;stroke-width:0.8;" x="172.47322" xlink:href="#mae37257ab3" y="143.1"/>
      </g>
     </g>
     <g id="text_4">
      <!-- 1 -->
      <g transform="translate(169.29197 157.698438)scale(0.1 -0.1)">
       <use xlink:href="#DejaVuSans-49"/>
      </g>
     </g>
    </g>
    <g id="xtick_5">
     <g id="line2d_5">
      <g>
       <use style="stroke:#000000;stroke-width:0.8;" x="216.970828" xlink:href="#mae37257ab3" y="143.1"/>
      </g>
     </g>
     <g id="text_5">
      <!-- 2 -->
      <g transform="translate(213.789578 157.698438)scale(0.1 -0.1)">
       <use xlink:href="#DejaVuSans-50"/>
      </g>
     </g>
    </g>
   </g>
   <g id="matplotlib.axis_2">
    <g id="ytick_1">
     <g id="line2d_6">
      <defs>
       <path d="M 0 0 
L -3.5 0 
" id="m2a751f3cd2" style="stroke:#000000;stroke-width:0.8;"/>
      </defs>
      <g>
       <use style="stroke:#000000;stroke-width:0.8;" x="30.103125" xlink:href="#m2a751f3cd2" y="136.922727"/>
      </g>
     </g>
     <g id="text_6">
      <!-- 0.0 -->
      <defs>
       <path d="M 10.6875 12.40625 
L 21 12.40625 
L 21 0 
L 10.6875 0 
z
" id="DejaVuSans-46"/>
      </defs>
      <g transform="translate(7.2 140.721946)scale(0.1 -0.1)">
       <use xlink:href="#DejaVuSans-48"/>
       <use x="63.623047" xlink:href="#DejaVuSans-46"/>
       <use x="95.410156" xlink:href="#DejaVuSans-48"/>
      </g>
     </g>
    </g>
    <g id="ytick_2">
     <g id="line2d_7">
      <g>
       <use style="stroke:#000000;stroke-width:0.8;" x="30.103125" xlink:href="#m2a751f3cd2" y="112.213636"/>
      </g>
     </g>
     <g id="text_7">
      <!-- 0.2 -->
      <g transform="translate(7.2 116.012855)scale(0.1 -0.1)">
       <use xlink:href="#DejaVuSans-48"/>
       <use x="63.623047" xlink:href="#DejaVuSans-46"/>
       <use x="95.410156" xlink:href="#DejaVuSans-50"/>
      </g>
     </g>
    </g>
    <g id="ytick_3">
     <g id="line2d_8">
      <g>
       <use style="stroke:#000000;stroke-width:0.8;" x="30.103125" xlink:href="#m2a751f3cd2" y="87.504545"/>
      </g>
     </g>
     <g id="text_8">
      <!-- 0.4 -->
      <defs>
       <path d="M 37.796875 64.3125 
L 12.890625 25.390625 
L 37.796875 25.390625 
z
M 35.203125 72.90625 
L 47.609375 72.90625 
L 47.609375 25.390625 
L 58.015625 25.390625 
L 58.015625 17.1875 
L 47.609375 17.1875 
L 47.609375 0 
L 37.796875 0 
L 37.796875 17.1875 
L 4.890625 17.1875 
L 4.890625 26.703125 
z
" id="DejaVuSans-52"/>
      </defs>
      <g transform="translate(7.2 91.303764)scale(0.1 -0.1)">
       <use xlink:href="#DejaVuSans-48"/>
       <use x="63.623047" xlink:href="#DejaVuSans-46"/>
       <use x="95.410156" xlink:href="#DejaVuSans-52"/>
      </g>
     </g>
    </g>
    <g id="ytick_4">
     <g id="line2d_9">
      <g>
       <use style="stroke:#000000;stroke-width:0.8;" x="30.103125" xlink:href="#m2a751f3cd2" y="62.795455"/>
      </g>
     </g>
     <g id="text_9">
      <!-- 0.6 -->
      <defs>
       <path d="M 33.015625 40.375 
Q 26.375 40.375 22.484375 35.828125 
Q 18.609375 31.296875 18.609375 23.390625 
Q 18.609375 15.53125 22.484375 10.953125 
Q 26.375 6.390625 33.015625 6.390625 
Q 39.65625 6.390625 43.53125 10.953125 
Q 47.40625 15.53125 47.40625 23.390625 
Q 47.40625 31.296875 43.53125 35.828125 
Q 39.65625 40.375 33.015625 40.375 
z
M 52.59375 71.296875 
L 52.59375 62.3125 
Q 48.875 64.0625 45.09375 64.984375 
Q 41.3125 65.921875 37.59375 65.921875 
Q 27.828125 65.921875 22.671875 59.328125 
Q 17.53125 52.734375 16.796875 39.40625 
Q 19.671875 43.65625 24.015625 45.921875 
Q 28.375 48.1875 33.59375 48.1875 
Q 44.578125 48.1875 50.953125 41.515625 
Q 57.328125 34.859375 57.328125 23.390625 
Q 57.328125 12.15625 50.6875 5.359375 
Q 44.046875 -1.421875 33.015625 -1.421875 
Q 20.359375 -1.421875 13.671875 8.265625 
Q 6.984375 17.96875 6.984375 36.375 
Q 6.984375 53.65625 15.1875 63.9375 
Q 23.390625 74.21875 37.203125 74.21875 
Q 40.921875 74.21875 44.703125 73.484375 
Q 48.484375 72.75 52.59375 71.296875 
z
" id="DejaVuSans-54"/>
      </defs>
      <g transform="translate(7.2 66.594673)scale(0.1 -0.1)">
       <use xlink:href="#DejaVuSans-48"/>
       <use x="63.623047" xlink:href="#DejaVuSans-46"/>
       <use x="95.410156" xlink:href="#DejaVuSans-54"/>
      </g>
     </g>
    </g>
    <g id="ytick_5">
     <g id="line2d_10">
      <g>
       <use style="stroke:#000000;stroke-width:0.8;" x="30.103125" xlink:href="#m2a751f3cd2" y="38.086364"/>
      </g>
     </g>
     <g id="text_10">
      <!-- 0.8 -->
      <defs>
       <path d="M 31.78125 34.625 
Q 24.75 34.625 20.71875 30.859375 
Q 16.703125 27.09375 16.703125 20.515625 
Q 16.703125 13.921875 20.71875 10.15625 
Q 24.75 6.390625 31.78125 6.390625 
Q 38.8125 6.390625 42.859375 10.171875 
Q 46.921875 13.96875 46.921875 20.515625 
Q 46.921875 27.09375 42.890625 30.859375 
Q 38.875 34.625 31.78125 34.625 
z
M 21.921875 38.8125 
Q 15.578125 40.375 12.03125 44.71875 
Q 8.5 49.078125 8.5 55.328125 
Q 8.5 64.0625 14.71875 69.140625 
Q 20.953125 74.21875 31.78125 74.21875 
Q 42.671875 74.21875 48.875 69.140625 
Q 55.078125 64.0625 55.078125 55.328125 
Q 55.078125 49.078125 51.53125 44.71875 
Q 48 40.375 41.703125 38.8125 
Q 48.828125 37.15625 52.796875 32.3125 
Q 56.78125 27.484375 56.78125 20.515625 
Q 56.78125 9.90625 50.3125 4.234375 
Q 43.84375 -1.421875 31.78125 -1.421875 
Q 19.734375 -1.421875 13.25 4.234375 
Q 6.78125 9.90625 6.78125 20.515625 
Q 6.78125 27.484375 10.78125 32.3125 
Q 14.796875 37.15625 21.921875 38.8125 
z
M 18.3125 54.390625 
Q 18.3125 48.734375 21.84375 45.5625 
Q 25.390625 42.390625 31.78125 42.390625 
Q 38.140625 42.390625 41.71875 45.5625 
Q 45.3125 48.734375 45.3125 54.390625 
Q 45.3125 60.0625 41.71875 63.234375 
Q 38.140625 66.40625 31.78125 66.40625 
Q 25.390625 66.40625 21.84375 63.234375 
Q 18.3125 60.0625 18.3125 54.390625 
z
" id="DejaVuSans-56"/>
      </defs>
      <g transform="translate(7.2 41.885582)scale(0.1 -0.1)">
       <use xlink:href="#DejaVuSans-48"/>
       <use x="63.623047" xlink:href="#DejaVuSans-46"/>
       <use x="95.410156" xlink:href="#DejaVuSans-56"/>
      </g>
     </g>
    </g>
    <g id="ytick_6">
     <g id="line2d_11">
      <g>
       <use style="stroke:#000000;stroke-width:0.8;" x="30.103125" xlink:href="#m2a751f3cd2" y="13.377273"/>
      </g>
     </g>
     <g id="text_11">
      <!-- 1.0 -->
      <g transform="translate(7.2 17.176491)scale(0.1 -0.1)">
       <use xlink:href="#DejaVuSans-49"/>
       <use x="63.623047" xlink:href="#DejaVuSans-46"/>
       <use x="95.410156" xlink:href="#DejaVuSans-48"/>
      </g>
     </g>
    </g>
   </g>
   <g id="line2d_12">
    <path clip-path="url(#pcc43c3d1f2)" d="M 38.980398 134.659913 
L 42.540208 133.826423 
L 45.655038 132.891346 
L 48.769873 131.725063 
L 51.439727 130.510484 
L 54.109586 129.068836 
L 56.77944 127.372079 
L 59.449299 125.392071 
L 62.119153 123.101453 
L 64.789007 120.474642 
L 67.458866 117.48902 
L 70.128725 114.126174 
L 72.798579 110.373275 
L 75.468433 106.224375 
L 78.138292 101.681765 
L 81.253127 95.900693 
L 84.367957 89.636971 
L 87.927767 81.962531 
L 92.377524 71.778152 
L 105.726809 40.70543 
L 108.841639 34.233306 
L 111.511498 29.183995 
L 113.736376 25.402155 
L 115.96126 22.063282 
L 117.741162 19.742974 
L 119.521065 17.757723 
L 121.300967 16.126011 
L 123.080875 14.863164 
L 124.415802 14.165436 
L 125.750729 13.685753 
L 127.085656 13.426684 
L 128.420588 13.389629 
L 129.755515 13.574787 
L 131.090442 13.981163 
L 132.425369 14.60657 
L 133.760296 15.447643 
L 135.095223 16.49989 
L 136.875136 18.221559 
L 138.655039 20.292423 
L 140.434942 22.693277 
L 142.65982 26.124677 
L 144.884698 29.989007 
L 147.554563 35.122826 
L 150.669392 41.67233 
L 154.229197 49.696135 
L 160.458867 64.413842 
L 166.688526 78.965265 
L 170.693318 87.766228 
L 174.253123 95.034318 
L 177.367953 100.887054 
L 180.482782 106.224356 
L 183.152647 110.373275 
L 185.822501 114.126174 
L 188.492354 117.489013 
L 191.162208 120.474635 
L 193.832073 123.101453 
L 196.501927 125.392071 
L 199.171781 127.372075 
L 201.841635 129.068832 
L 204.511499 130.510484 
L 207.181353 131.725063 
L 210.296183 132.891344 
L 213.411012 133.826422 
L 216.525852 134.567801 
L 216.525852 134.567801 
" style="fill:none;stroke:#000000;stroke-linecap:square;stroke-width:1.5;"/>
   </g>
   <g id="patch_3">
    <path d="M 30.103125 143.1 
L 30.103125 7.2 
" style="fill:none;stroke:#000000;stroke-linecap:square;stroke-linejoin:miter;stroke-width:0.8;"/>
   </g>
   <g id="patch_4">
    <path d="M 225.403125 143.1 
L 225.403125 7.2 
" style="fill:none;stroke:#000000;stroke-linecap:square;stroke-linejoin:miter;stroke-width:0.8;"/>
   </g>
   <g id="patch_5">
    <path d="M 30.103125 143.1 
L 225.403125 143.1 
" style="fill:none;stroke:#000000;stroke-linecap:square;stroke-linejoin:miter;stroke-width:0.8;"/>
   </g>
   <g id="patch_6">
    <path d="M 30.103125 7.2 
L 225.403125 7.2 
" style="fill:none;stroke:#000000;stroke-linecap:square;stroke-linejoin:miter;stroke-width:0.8;"/>
   </g>
  </g>
 </g>
 <defs>
  <clipPath id="pcc43c3d1f2">
   <rect height="135.9" width="195.3" x="30.103125" y="7.2"/>
  </clipPath>
 </defs>
</svg>
