<?xml version="1.0" encoding="utf-8" standalone="no"?>
<!DOCTYPE svg PUBLIC "-//W3C//DTD SVG 1.1//EN"
  "http://www.w3.org/Graphics/SVG/1.1/DTD/svg11.dtd">
<!-- Created with matplotlib (https://matplotlib.org/) -->
<svg height="166.978125pt" version="1.1" viewBox="0 0 232.603125 166.978125" width="232.603125pt" xmlns="http://www.w3.org/2000/svg" xmlns:xlink="http://www.w3.org/1999/xlink">
 <defs>
  <style type="text/css">
*{stroke-linecap:butt;stroke-linejoin:round;}
  </style>
 </defs>
 <g id="figure_1">
  <g id="patch_1">
   <path d="M 0 166.978125 
L 232.603125 166.978125 
L 232.603125 0 
L 0 0 
z
" style="fill:none;"/>
  </g>
  <g id="axes_1">
   <g id="patch_2">
    <path d="M 30.103125 143.1 
L 225.403125 143.1 
L 225.403125 7.2 
L 30.103125 7.2 
z
" style="fill:#ffffff;"/>
   </g>
   <g id="PolyCollection_1">
    <path clip-path="url(#p39c85727bd)" d="M 92.297352 136.922727 
L 92.297352 61.994783 
L 92.475075 61.245528 
L 92.652798 60.496423 
L 92.830521 59.747618 
L 93.008244 58.999263 
L 93.185967 58.251525 
L 93.36369 57.504548 
L 93.541413 56.758506 
L 93.719136 56.013537 
L 93.896859 55.269825 
L 94.074582 54.527491 
L 94.252305 53.786744 
L 94.430028 53.047715 
L 94.607751 52.310578 
L 94.785474 51.575501 
L 94.963197 50.842643 
L 95.14092 50.112186 
L 95.318643 49.384266 
L 95.496366 48.659074 
L 95.674089 47.936778 
L 95.851813 47.217533 
L 96.02954 46.501512 
L 96.207263 45.788894 
L 96.384986 45.079858 
L 96.562709 44.374548 
L 96.740432 43.673149 
L 96.918155 42.975827 
L 97.095878 42.282774 
L 97.273601 41.59411 
L 97.451324 40.910048 
L 97.629047 40.230751 
L 97.80677 39.556385 
L 97.984493 38.887112 
L 98.162216 38.223111 
L 98.339939 37.564544 
L 98.517662 36.911594 
L 98.695385 36.2644 
L 98.873108 35.623182 
L 99.050831 34.988031 
L 99.228554 34.359179 
L 99.406277 33.736753 
L 99.584 33.120947 
L 99.761723 32.51189 
L 99.939446 31.909766 
L 100.117169 31.314725 
L 100.294892 30.726928 
L 100.472619 30.146526 
L 100.650342 29.573702 
L 100.828065 29.008607 
L 101.005788 28.451357 
L 101.183511 27.902147 
L 101.361234 27.361104 
L 101.538957 26.828389 
L 101.71668 26.304142 
L 101.894403 25.788512 
L 102.072126 25.281638 
L 102.249849 24.783669 
L 102.427572 24.294732 
L 102.605295 23.814978 
L 102.783018 23.344533 
L 102.960741 22.883535 
L 103.138464 22.432101 
L 103.316188 21.990379 
L 103.493911 21.558486 
L 103.671634 21.13656 
L 103.849357 20.724693 
L 104.02708 20.323011 
L 104.204803 19.931654 
L 104.382526 19.550702 
L 104.560249 19.180283 
L 104.737972 18.82051 
L 104.915695 18.471466 
L 105.093422 18.133253 
L 105.271145 17.806011 
L 105.448868 17.489786 
L 105.626591 17.184715 
L 105.804314 16.890845 
L 105.982037 16.608269 
L 106.15976 16.33709 
L 106.337483 16.077389 
L 106.515206 15.829224 
L 106.692929 15.592674 
L 106.870652 15.367811 
L 107.048375 15.154702 
L 107.226098 14.953406 
L 107.403821 14.763991 
L 107.581544 14.586493 
L 107.759267 14.420991 
L 107.93699 14.267522 
L 108.114713 14.12613 
L 108.292436 13.996862 
L 108.470159 13.879741 
L 108.647882 13.774813 
L 108.825605 13.682101 
L 109.003328 13.601663 
L 109.181051 13.533488 
L 109.358774 13.477598 
L 109.536501 13.434016 
L 109.714224 13.402766 
L 109.891947 13.383848 
L 110.06967 13.377273 
L 110.247389 13.383017 
L 110.425116 13.401105 
L 110.602835 13.431525 
L 110.780562 13.474264 
L 110.958281 13.5293 
L 111.136009 13.596645 
L 111.313727 13.676241 
L 111.491455 13.768088 
L 111.669173 13.872139 
L 111.846901 13.988395 
L 112.024628 14.116774 
L 112.202347 14.257266 
L 112.380074 14.409813 
L 112.557793 14.574392 
L 112.73552 14.750944 
L 112.913239 14.93939 
L 113.090966 15.139717 
L 113.268685 15.351834 
L 113.446412 15.575682 
L 113.624131 15.811193 
L 113.801858 16.058286 
L 113.979577 16.316903 
L 114.157304 16.586974 
L 114.335023 16.868397 
L 114.51275 17.161113 
L 114.690469 17.464984 
L 114.868196 17.779987 
L 115.045915 18.105972 
L 115.223642 18.442892 
L 115.401361 18.790575 
L 115.579088 19.149009 
L 115.756807 19.518022 
L 115.934534 19.897532 
L 116.112253 20.287401 
L 116.28998 20.687559 
L 116.467707 21.097869 
L 116.645426 21.518192 
L 116.823153 21.948424 
L 117.000872 22.388427 
L 117.178599 22.838096 
L 117.356318 23.29726 
L 117.534045 23.765847 
L 117.711764 24.243652 
L 117.889491 24.730616 
L 118.06721 25.226532 
L 118.244937 25.731307 
L 118.422656 26.244757 
L 118.600384 26.766766 
L 118.778102 27.29715 
L 118.95583 27.835829 
L 119.133548 28.382559 
L 119.311276 28.937294 
L 119.488994 29.499771 
L 119.666722 30.069918 
L 119.84444 30.647506 
L 120.022168 31.232453 
L 120.199886 31.824541 
L 120.377614 32.423631 
L 120.555332 33.029551 
L 120.73306 33.642149 
L 120.910787 34.261242 
L 121.088506 34.886668 
L 121.266233 35.518277 
L 121.443952 36.155861 
L 121.621679 36.799295 
L 121.799398 37.448368 
L 121.977125 38.102945 
L 122.154844 38.762828 
L 122.332571 39.42789 
L 122.51029 40.097878 
L 122.688017 40.772705 
L 122.865736 41.452129 
L 123.043463 42.136041 
L 123.221182 42.824186 
L 123.398909 43.516466 
L 123.576628 44.212646 
L 123.754355 44.912615 
L 123.932074 45.616131 
L 124.109801 46.323097 
L 124.28752 47.033246 
L 124.465247 47.746498 
L 124.642966 48.462606 
L 124.820693 49.181447 
L 124.998412 49.902803 
L 125.176139 50.626559 
L 125.353858 51.352477 
L 125.531585 52.080449 
L 125.709312 52.810278 
L 125.887031 53.541762 
L 126.064759 54.274781 
L 126.242477 55.009126 
L 126.420205 55.744688 
L 126.597923 56.481231 
L 126.775651 57.21865 
L 126.953369 57.956721 
L 127.131097 58.695352 
L 127.308815 59.434311 
L 127.486543 60.173507 
L 127.664261 60.912697 
L 127.841989 61.651812 
L 128.019707 62.390616 
L 128.197435 63.129027 
L 128.375153 63.866822 
L 128.552881 64.603907 
L 128.730599 65.340074 
L 128.908327 66.075244 
L 129.086045 66.809191 
L 129.263773 67.541852 
L 129.441491 68.272985 
L 129.619219 69.002549 
L 129.796938 69.730324 
L 129.974665 70.456231 
L 130.152392 71.180108 
L 130.330111 71.901769 
L 130.507838 72.621164 
L 130.685557 73.338097 
L 130.863284 74.052491 
L 131.041003 74.764163 
L 131.21873 75.473049 
L 131.396449 76.178959 
L 131.574176 76.881829 
L 131.751895 77.581498 
L 131.929622 78.277885 
L 132.107341 78.970829 
L 132.285068 79.660266 
L 132.462787 80.346035 
L 132.640514 81.028078 
L 132.818233 81.706233 
L 132.99596 82.380449 
L 133.173679 83.050569 
L 133.351406 83.716555 
L 133.529125 84.378237 
L 133.706852 85.035588 
L 133.884571 85.688451 
L 134.062298 86.336793 
L 134.240017 86.980468 
L 134.417744 87.619442 
L 134.595472 88.253607 
L 134.77319 88.882836 
L 134.950918 89.507126 
L 135.128636 90.126326 
L 135.306364 90.740421 
L 135.484082 91.349285 
L 135.66181 91.952891 
L 135.839528 92.551127 
L 136.017256 93.143965 
L 136.194974 93.731295 
L 136.372702 94.313108 
L 136.55042 94.889282 
L 136.728148 95.459816 
L 136.905866 96.024591 
L 137.083594 96.583618 
L 137.261313 97.136791 
L 137.43904 97.684094 
L 137.616759 98.225446 
L 137.794486 98.760837 
L 137.972205 99.290182 
L 138.149932 99.813487 
L 138.327651 100.330657 
L 138.505378 100.841704 
L 138.683097 101.346543 
L 138.860824 101.84519 
L 139.038543 102.337561 
L 139.21627 102.823674 
L 139.393997 103.303478 
L 139.571716 103.776922 
L 139.749443 104.244022 
L 139.927162 104.704719 
L 140.104889 105.159026 
L 140.282608 105.60689 
L 140.460335 106.048329 
L 140.638054 106.483282 
L 140.815781 106.911783 
L 140.9935 107.333773 
L 141.171227 107.749289 
L 141.348946 108.158275 
L 141.526673 108.560764 
L 141.704392 108.956712 
L 141.882119 109.346154 
L 142.059838 109.729047 
L 142.237565 110.105422 
L 142.415284 110.475256 
L 142.593011 110.838576 
L 142.77073 111.195355 
L 142.948457 111.545628 
L 143.126176 111.889372 
L 143.303903 112.226624 
L 143.481622 112.557358 
L 143.659349 112.881621 
L 143.837077 113.199408 
L 144.014795 113.510718 
L 144.192523 113.815589 
L 144.370241 114.114013 
L 144.547969 114.406033 
L 144.725688 114.691639 
L 144.903415 114.970875 
L 145.081134 115.243738 
L 145.258861 115.510273 
L 145.43658 115.77048 
L 145.614307 116.024406 
L 145.792026 116.272051 
L 145.969753 116.51346 
L 146.147472 116.748642 
L 146.325199 116.977644 
L 146.502918 117.20048 
L 146.680645 117.417191 
L 146.858364 117.627791 
L 147.036091 117.832331 
L 147.21381 118.030826 
L 147.391537 118.223322 
L 147.569256 118.409843 
L 147.746983 118.590437 
L 147.924702 118.765124 
L 148.102429 118.933953 
L 148.280156 119.096958 
L 148.457875 119.254167 
L 148.635602 119.405635 
L 148.813321 119.551385 
L 148.991048 119.69147 
L 149.168767 119.825925 
L 149.346494 119.954796 
L 149.524213 120.078118 
L 149.70194 120.19594 
L 149.879659 120.308301 
L 150.057386 120.415249 
L 150.235105 120.516826 
L 150.412832 120.613079 
L 150.590551 120.70405 
L 150.768278 120.78979 
L 150.945997 120.870343 
L 151.123724 120.945757 
L 151.301443 121.016081 
L 151.47917 121.081361 
L 151.656889 121.141646 
L 151.834616 121.196988 
L 152.012335 121.247432 
L 152.190062 121.293033 
L 152.367781 121.333838 
L 152.545509 121.369901 
L 152.723227 121.401272 
L 152.900955 121.428003 
L 153.078682 121.450144 
L 153.256401 121.467749 
L 153.434128 121.480873 
L 153.611847 121.489566 
L 153.789574 121.493883 
L 153.967293 121.493878 
L 154.14502 121.489607 
L 154.322739 121.481123 
L 154.500466 121.468481 
L 154.678185 121.451735 
L 154.855912 121.430942 
L 155.033631 121.406157 
L 155.211358 121.377435 
L 155.389077 121.34484 
L 155.566804 121.308416 
L 155.744523 121.268232 
L 155.92225 121.224333 
L 156.099969 121.176789 
L 156.277696 121.125649 
L 156.455415 121.070974 
L 156.633142 121.012822 
L 156.810861 120.951254 
L 156.988588 120.886318 
L 157.166307 120.818087 
L 157.344034 120.746609 
L 157.521761 120.671949 
L 157.69948 120.594167 
L 157.877207 120.513316 
L 158.054926 120.429466 
L 158.232653 120.342664 
L 158.410372 120.252983 
L 158.588099 120.160473 
L 158.765818 120.065204 
L 158.943545 119.967223 
L 159.121264 119.866607 
L 159.298991 119.763401 
L 159.47671 119.657678 
L 159.654437 119.549491 
L 159.832156 119.438911 
L 160.009884 119.325988 
L 160.187602 119.210793 
L 160.36533 119.093376 
L 160.543048 118.973813 
L 160.720776 118.852151 
L 160.898494 118.728466 
L 161.076222 118.602809 
L 161.25394 118.475248 
L 161.431668 118.345836 
L 161.609386 118.214652 
L 161.787114 118.08174 
L 161.964841 117.947171 
L 162.14256 117.811009 
L 162.320287 117.673312 
L 162.498006 117.534146 
L 162.675733 117.393569 
L 162.853452 117.251649 
L 163.031179 117.108439 
L 163.208898 116.964013 
L 163.386625 116.818419 
L 163.564344 116.671735 
L 163.742071 116.524009 
L 163.91979 116.375315 
L 164.097517 116.225703 
L 164.275236 116.075249 
L 164.452963 115.923999 
L 164.630682 115.772033 
L 164.808409 115.619393 
L 164.986128 115.466156 
L 165.163855 115.312374 
L 165.341574 115.15812 
L 165.519301 115.003437 
L 165.69702 114.84841 
L 165.874747 114.693072 
L 166.052466 114.53751 
L 166.230193 114.381768 
L 166.40792 114.225906 
L 166.585639 114.069999 
L 166.763366 113.914093 
L 166.941085 113.758257 
L 167.118812 113.602542 
L 167.296531 113.447016 
L 167.474259 113.291728 
L 167.651977 113.136747 
L 167.829705 112.982122 
L 168.007423 112.827926 
L 168.185151 112.674197 
L 168.362869 112.521007 
L 168.540597 112.368402 
L 168.718315 112.216458 
L 168.896043 112.065209 
L 169.073761 111.914724 
L 169.251489 111.765055 
L 169.429207 111.616263 
L 169.606935 111.468394 
L 169.784653 111.321514 
L 169.962381 111.175664 
L 170.140099 111.030909 
L 170.317827 110.887285 
L 170.495545 110.744869 
L 170.673273 110.603697 
L 170.850992 110.463827 
L 171.028719 110.325302 
L 171.206446 110.188178 
L 171.384165 110.052514 
L 171.561892 109.918343 
L 171.739611 109.78573 
L 171.917338 109.654711 
L 172.095057 109.525339 
L 172.272784 109.397658 
L 172.450503 109.271726 
L 172.62823 109.147569 
L 172.805949 109.025251 
L 172.983676 108.904802 
L 173.161395 108.786279 
L 173.339122 108.669715 
L 173.516841 108.555157 
L 173.694568 108.442648 
L 173.872287 108.332226 
L 174.050014 108.223933 
L 174.227733 108.117808 
L 174.40546 108.013887 
L 174.583179 107.912215 
L 174.760906 107.812824 
L 174.938625 107.715752 
L 175.116352 107.62103 
L 175.294071 107.528702 
L 175.471798 107.438793 
L 175.649526 107.351342 
L 175.827244 107.266385 
L 176.004972 107.18394 
L 176.18269 107.104045 
L 176.360418 107.026733 
L 176.538136 106.952031 
L 176.715864 106.879963 
L 176.893582 106.810561 
L 177.07131 106.743845 
L 177.249028 106.679849 
L 177.426756 106.618586 
L 177.604474 106.560089 
L 177.782202 106.504378 
L 177.95992 106.45147 
L 178.137648 106.401385 
L 178.315366 106.354152 
L 178.493094 106.309781 
L 178.670813 106.26829 
L 178.84854 106.2297 
L 179.026259 106.194027 
L 179.203986 106.161277 
L 179.381705 106.131472 
L 179.559432 106.10462 
L 179.737151 106.080735 
L 179.914878 106.059824 
L 180.092605 106.041906 
L 180.270324 106.026979 
L 180.448051 106.015054 
L 180.62577 106.00614 
L 180.803497 106.000243 
L 180.981216 105.997365 
L 180.981216 136.922727 
L 180.981216 136.922727 
L 180.803497 136.922727 
L 180.62577 136.922727 
L 180.448051 136.922727 
L 180.270324 136.922727 
L 180.092605 136.922727 
L 179.914878 136.922727 
L 179.737151 136.922727 
L 179.559432 136.922727 
L 179.381705 136.922727 
L 179.203986 136.922727 
L 179.026259 136.922727 
L 178.84854 136.922727 
L 178.670813 136.922727 
L 178.493094 136.922727 
L 178.315366 136.922727 
L 178.137648 136.922727 
L 177.95992 136.922727 
L 177.782202 136.922727 
L 177.604474 136.922727 
L 177.426756 136.922727 
L 177.249028 136.922727 
L 177.07131 136.922727 
L 176.893582 136.922727 
L 176.715864 136.922727 
L 176.538136 136.922727 
L 176.360418 136.922727 
L 176.18269 136.922727 
L 176.004972 136.922727 
L 175.827244 136.922727 
L 175.649526 136.922727 
L 175.471798 136.922727 
L 175.294071 136.922727 
L 175.116352 136.922727 
L 174.938625 136.922727 
L 174.760906 136.922727 
L 174.583179 136.922727 
L 174.40546 136.922727 
L 174.227733 136.922727 
L 174.050014 136.922727 
L 173.872287 136.922727 
L 173.694568 136.922727 
L 173.516841 136.922727 
L 173.339122 136.922727 
L 173.161395 136.922727 
L 172.983676 136.922727 
L 172.805949 136.922727 
L 172.62823 136.922727 
L 172.450503 136.922727 
L 172.272784 136.922727 
L 172.095057 136.922727 
L 171.917338 136.922727 
L 171.739611 136.922727 
L 171.561892 136.922727 
L 171.384165 136.922727 
L 171.206446 136.922727 
L 171.028719 136.922727 
L 170.850992 136.922727 
L 170.673273 136.922727 
L 170.495545 136.922727 
L 170.317827 136.922727 
L 170.140099 136.922727 
L 169.962381 136.922727 
L 169.784653 136.922727 
L 169.606935 136.922727 
L 169.429207 136.922727 
L 169.251489 136.922727 
L 169.073761 136.922727 
L 168.896043 136.922727 
L 168.718315 136.922727 
L 168.540597 136.922727 
L 168.362869 136.922727 
L 168.185151 136.922727 
L 168.007423 136.922727 
L 167.829705 136.922727 
L 167.651977 136.922727 
L 167.474259 136.922727 
L 167.296531 136.922727 
L 167.118812 136.922727 
L 166.941085 136.922727 
L 166.763366 136.922727 
L 166.585639 136.922727 
L 166.40792 136.922727 
L 166.230193 136.922727 
L 166.052466 136.922727 
L 165.874747 136.922727 
L 165.69702 136.922727 
L 165.519301 136.922727 
L 165.341574 136.922727 
L 165.163855 136.922727 
L 164.986128 136.922727 
L 164.808409 136.922727 
L 164.630682 136.922727 
L 164.452963 136.922727 
L 164.275236 136.922727 
L 164.097517 136.922727 
L 163.91979 136.922727 
L 163.742071 136.922727 
L 163.564344 136.922727 
L 163.386625 136.922727 
L 163.208898 136.922727 
L 163.031179 136.922727 
L 162.853452 136.922727 
L 162.675733 136.922727 
L 162.498006 136.922727 
L 162.320287 136.922727 
L 162.14256 136.922727 
L 161.964841 136.922727 
L 161.787114 136.922727 
L 161.609386 136.922727 
L 161.431668 136.922727 
L 161.25394 136.922727 
L 161.076222 136.922727 
L 160.898494 136.922727 
L 160.720776 136.922727 
L 160.543048 136.922727 
L 160.36533 136.922727 
L 160.187602 136.922727 
L 160.009884 136.922727 
L 159.832156 136.922727 
L 159.654437 136.922727 
L 159.47671 136.922727 
L 159.298991 136.922727 
L 159.121264 136.922727 
L 158.943545 136.922727 
L 158.765818 136.922727 
L 158.588099 136.922727 
L 158.410372 136.922727 
L 158.232653 136.922727 
L 158.054926 136.922727 
L 157.877207 136.922727 
L 157.69948 136.922727 
L 157.521761 136.922727 
L 157.344034 136.922727 
L 157.166307 136.922727 
L 156.988588 136.922727 
L 156.810861 136.922727 
L 156.633142 136.922727 
L 156.455415 136.922727 
L 156.277696 136.922727 
L 156.099969 136.922727 
L 155.92225 136.922727 
L 155.744523 136.922727 
L 155.566804 136.922727 
L 155.389077 136.922727 
L 155.211358 136.922727 
L 155.033631 136.922727 
L 154.855912 136.922727 
L 154.678185 136.922727 
L 154.500466 136.922727 
L 154.322739 136.922727 
L 154.14502 136.922727 
L 153.967293 136.922727 
L 153.789574 136.922727 
L 153.611847 136.922727 
L 153.434128 136.922727 
L 153.256401 136.922727 
L 153.078682 136.922727 
L 152.900955 136.922727 
L 152.723227 136.922727 
L 152.545509 136.922727 
L 152.367781 136.922727 
L 152.190062 136.922727 
L 152.012335 136.922727 
L 151.834616 136.922727 
L 151.656889 136.922727 
L 151.47917 136.922727 
L 151.301443 136.922727 
L 151.123724 136.922727 
L 150.945997 136.922727 
L 150.768278 136.922727 
L 150.590551 136.922727 
L 150.412832 136.922727 
L 150.235105 136.922727 
L 150.057386 136.922727 
L 149.879659 136.922727 
L 149.70194 136.922727 
L 149.524213 136.922727 
L 149.346494 136.922727 
L 149.168767 136.922727 
L 148.991048 136.922727 
L 148.813321 136.922727 
L 148.635602 136.922727 
L 148.457875 136.922727 
L 148.280156 136.922727 
L 148.102429 136.922727 
L 147.924702 136.922727 
L 147.746983 136.922727 
L 147.569256 136.922727 
L 147.391537 136.922727 
L 147.21381 136.922727 
L 147.036091 136.922727 
L 146.858364 136.922727 
L 146.680645 136.922727 
L 146.502918 136.922727 
L 146.325199 136.922727 
L 146.147472 136.922727 
L 145.969753 136.922727 
L 145.792026 136.922727 
L 145.614307 136.922727 
L 145.43658 136.922727 
L 145.258861 136.922727 
L 145.081134 136.922727 
L 144.903415 136.922727 
L 144.725688 136.922727 
L 144.547969 136.922727 
L 144.370241 136.922727 
L 144.192523 136.922727 
L 144.014795 136.922727 
L 143.837077 136.922727 
L 143.659349 136.922727 
L 143.481622 136.922727 
L 143.303903 136.922727 
L 143.126176 136.922727 
L 142.948457 136.922727 
L 142.77073 136.922727 
L 142.593011 136.922727 
L 142.415284 136.922727 
L 142.237565 136.922727 
L 142.059838 136.922727 
L 141.882119 136.922727 
L 141.704392 136.922727 
L 141.526673 136.922727 
L 141.348946 136.922727 
L 141.171227 136.922727 
L 140.9935 136.922727 
L 140.815781 136.922727 
L 140.638054 136.922727 
L 140.460335 136.922727 
L 140.282608 136.922727 
L 140.104889 136.922727 
L 139.927162 136.922727 
L 139.749443 136.922727 
L 139.571716 136.922727 
L 139.393997 136.922727 
L 139.21627 136.922727 
L 139.038543 136.922727 
L 138.860824 136.922727 
L 138.683097 136.922727 
L 138.505378 136.922727 
L 138.327651 136.922727 
L 138.149932 136.922727 
L 137.972205 136.922727 
L 137.794486 136.922727 
L 137.616759 136.922727 
L 137.43904 136.922727 
L 137.261313 136.922727 
L 137.083594 136.922727 
L 136.905866 136.922727 
L 136.728148 136.922727 
L 136.55042 136.922727 
L 136.372702 136.922727 
L 136.194974 136.922727 
L 136.017256 136.922727 
L 135.839528 136.922727 
L 135.66181 136.922727 
L 135.484082 136.922727 
L 135.306364 136.922727 
L 135.128636 136.922727 
L 134.950918 136.922727 
L 134.77319 136.922727 
L 134.595472 136.922727 
L 134.417744 136.922727 
L 134.240017 136.922727 
L 134.062298 136.922727 
L 133.884571 136.922727 
L 133.706852 136.922727 
L 133.529125 136.922727 
L 133.351406 136.922727 
L 133.173679 136.922727 
L 132.99596 136.922727 
L 132.818233 136.922727 
L 132.640514 136.922727 
L 132.462787 136.922727 
L 132.285068 136.922727 
L 132.107341 136.922727 
L 131.929622 136.922727 
L 131.751895 136.922727 
L 131.574176 136.922727 
L 131.396449 136.922727 
L 131.21873 136.922727 
L 131.041003 136.922727 
L 130.863284 136.922727 
L 130.685557 136.922727 
L 130.507838 136.922727 
L 130.330111 136.922727 
L 130.152392 136.922727 
L 129.974665 136.922727 
L 129.796938 136.922727 
L 129.619219 136.922727 
L 129.441491 136.922727 
L 129.263773 136.922727 
L 129.086045 136.922727 
L 128.908327 136.922727 
L 128.730599 136.922727 
L 128.552881 136.922727 
L 128.375153 136.922727 
L 128.197435 136.922727 
L 128.019707 136.922727 
L 127.841989 136.922727 
L 127.664261 136.922727 
L 127.486543 136.922727 
L 127.308815 136.922727 
L 127.131097 136.922727 
L 126.953369 136.922727 
L 126.775651 136.922727 
L 126.597923 136.922727 
L 126.420205 136.922727 
L 126.242477 136.922727 
L 126.064759 136.922727 
L 125.887031 136.922727 
L 125.709312 136.922727 
L 125.531585 136.922727 
L 125.353858 136.922727 
L 125.176139 136.922727 
L 124.998412 136.922727 
L 124.820693 136.922727 
L 124.642966 136.922727 
L 124.465247 136.922727 
L 124.28752 136.922727 
L 124.109801 136.922727 
L 123.932074 136.922727 
L 123.754355 136.922727 
L 123.576628 136.922727 
L 123.398909 136.922727 
L 123.221182 136.922727 
L 123.043463 136.922727 
L 122.865736 136.922727 
L 122.688017 136.922727 
L 122.51029 136.922727 
L 122.332571 136.922727 
L 122.154844 136.922727 
L 121.977125 136.922727 
L 121.799398 136.922727 
L 121.621679 136.922727 
L 121.443952 136.922727 
L 121.266233 136.922727 
L 121.088506 136.922727 
L 120.910787 136.922727 
L 120.73306 136.922727 
L 120.555332 136.922727 
L 120.377614 136.922727 
L 120.199886 136.922727 
L 120.022168 136.922727 
L 119.84444 136.922727 
L 119.666722 136.922727 
L 119.488994 136.922727 
L 119.311276 136.922727 
L 119.133548 136.922727 
L 118.95583 136.922727 
L 118.778102 136.922727 
L 118.600384 136.922727 
L 118.422656 136.922727 
L 118.244937 136.922727 
L 118.06721 136.922727 
L 117.889491 136.922727 
L 117.711764 136.922727 
L 117.534045 136.922727 
L 117.356318 136.922727 
L 117.178599 136.922727 
L 117.000872 136.922727 
L 116.823153 136.922727 
L 116.645426 136.922727 
L 116.467707 136.922727 
L 116.28998 136.922727 
L 116.112253 136.922727 
L 115.934534 136.922727 
L 115.756807 136.922727 
L 115.579088 136.922727 
L 115.401361 136.922727 
L 115.223642 136.922727 
L 115.045915 136.922727 
L 114.868196 136.922727 
L 114.690469 136.922727 
L 114.51275 136.922727 
L 114.335023 136.922727 
L 114.157304 136.922727 
L 113.979577 136.922727 
L 113.801858 136.922727 
L 113.624131 136.922727 
L 113.446412 136.922727 
L 113.268685 136.922727 
L 113.090966 136.922727 
L 112.913239 136.922727 
L 112.73552 136.922727 
L 112.557793 136.922727 
L 112.380074 136.922727 
L 112.202347 136.922727 
L 112.024628 136.922727 
L 111.846901 136.922727 
L 111.669173 136.922727 
L 111.491455 136.922727 
L 111.313727 136.922727 
L 111.136009 136.922727 
L 110.958281 136.922727 
L 110.780562 136.922727 
L 110.602835 136.922727 
L 110.425116 136.922727 
L 110.247389 136.922727 
L 110.06967 136.922727 
L 109.891947 136.922727 
L 109.714224 136.922727 
L 109.536501 136.922727 
L 109.358774 136.922727 
L 109.181051 136.922727 
L 109.003328 136.922727 
L 108.825605 136.922727 
L 108.647882 136.922727 
L 108.470159 136.922727 
L 108.292436 136.922727 
L 108.114713 136.922727 
L 107.93699 136.922727 
L 107.759267 136.922727 
L 107.581544 136.922727 
L 107.403821 136.922727 
L 107.226098 136.922727 
L 107.048375 136.922727 
L 106.870652 136.922727 
L 106.692929 136.922727 
L 106.515206 136.922727 
L 106.337483 136.922727 
L 106.15976 136.922727 
L 105.982037 136.922727 
L 105.804314 136.922727 
L 105.626591 136.922727 
L 105.448868 136.922727 
L 105.271145 136.922727 
L 105.093422 136.922727 
L 104.915695 136.922727 
L 104.737972 136.922727 
L 104.560249 136.922727 
L 104.382526 136.922727 
L 104.204803 136.922727 
L 104.02708 136.922727 
L 103.849357 136.922727 
L 103.671634 136.922727 
L 103.493911 136.922727 
L 103.316188 136.922727 
L 103.138464 136.922727 
L 102.960741 136.922727 
L 102.783018 136.922727 
L 102.605295 136.922727 
L 102.427572 136.922727 
L 102.249849 136.922727 
L 102.072126 136.922727 
L 101.894403 136.922727 
L 101.71668 136.922727 
L 101.538957 136.922727 
L 101.361234 136.922727 
L 101.183511 136.922727 
L 101.005788 136.922727 
L 100.828065 136.922727 
L 100.650342 136.922727 
L 100.472619 136.922727 
L 100.294892 136.922727 
L 100.117169 136.922727 
L 99.939446 136.922727 
L 99.761723 136.922727 
L 99.584 136.922727 
L 99.406277 136.922727 
L 99.228554 136.922727 
L 99.050831 136.922727 
L 98.873108 136.922727 
L 98.695385 136.922727 
L 98.517662 136.922727 
L 98.339939 136.922727 
L 98.162216 136.922727 
L 97.984493 136.922727 
L 97.80677 136.922727 
L 97.629047 136.922727 
L 97.451324 136.922727 
L 97.273601 136.922727 
L 97.095878 136.922727 
L 96.918155 136.922727 
L 96.740432 136.922727 
L 96.562709 136.922727 
L 96.384986 136.922727 
L 96.207263 136.922727 
L 96.02954 136.922727 
L 95.851813 136.922727 
L 95.674089 136.922727 
L 95.496366 136.922727 
L 95.318643 136.922727 
L 95.14092 136.922727 
L 94.963197 136.922727 
L 94.785474 136.922727 
L 94.607751 136.922727 
L 94.430028 136.922727 
L 94.252305 136.922727 
L 94.074582 136.922727 
L 93.896859 136.922727 
L 93.719136 136.922727 
L 93.541413 136.922727 
L 93.36369 136.922727 
L 93.185967 136.922727 
L 93.008244 136.922727 
L 92.830521 136.922727 
L 92.652798 136.922727 
L 92.475075 136.922727 
L 92.297352 136.922727 
z
" style="fill:#1f77b4;"/>
   </g>
   <g id="matplotlib.axis_1">
    <g id="xtick_1">
     <g id="line2d_1">
      <defs>
       <path d="M 0 0 
L 0 3.5 
" id="md801d89989" style="stroke:#000000;stroke-width:0.8;"/>
      </defs>
      <g>
       <use style="stroke:#000000;stroke-width:0.8;" x="56.752716" xlink:href="#md801d89989" y="143.1"/>
      </g>
     </g>
     <g id="text_1">
      <!-- −4 -->
      <defs>
       <path d="M 10.59375 35.5 
L 73.1875 35.5 
L 73.1875 27.203125 
L 10.59375 27.203125 
z
" id="DejaVuSans-8722"/>
       <path d="M 37.796875 64.3125 
L 12.890625 25.390625 
L 37.796875 25.390625 
z
M 35.203125 72.90625 
L 47.609375 72.90625 
L 47.609375 25.390625 
L 58.015625 25.390625 
L 58.015625 17.1875 
L 47.609375 17.1875 
L 47.609375 0 
L 37.796875 0 
L 37.796875 17.1875 
L 4.890625 17.1875 
L 4.890625 26.703125 
z
" id="DejaVuSans-52"/>
      </defs>
      <g transform="translate(49.381622 157.698438)scale(0.1 -0.1)">
       <use xlink:href="#DejaVuSans-8722"/>
       <use x="83.789062" xlink:href="#DejaVuSans-52"/>
      </g>
     </g>
    </g>
    <g id="xtick_2">
     <g id="line2d_2">
      <g>
       <use style="stroke:#000000;stroke-width:0.8;" x="92.297352" xlink:href="#md801d89989" y="143.1"/>
      </g>
     </g>
     <g id="text_2">
      <!-- −2 -->
      <defs>
       <path d="M 19.1875 8.296875 
L 53.609375 8.296875 
L 53.609375 0 
L 7.328125 0 
L 7.328125 8.296875 
Q 12.9375 14.109375 22.625 23.890625 
Q 32.328125 33.6875 34.8125 36.53125 
Q 39.546875 41.84375 41.421875 45.53125 
Q 43.3125 49.21875 43.3125 52.78125 
Q 43.3125 58.59375 39.234375 62.25 
Q 35.15625 65.921875 28.609375 65.921875 
Q 23.96875 65.921875 18.8125 64.3125 
Q 13.671875 62.703125 7.8125 59.421875 
L 7.8125 69.390625 
Q 13.765625 71.78125 18.9375 73 
Q 24.125 74.21875 28.421875 74.21875 
Q 39.75 74.21875 46.484375 68.546875 
Q 53.21875 62.890625 53.21875 53.421875 
Q 53.21875 48.921875 51.53125 44.890625 
Q 49.859375 40.875 45.40625 35.40625 
Q 44.1875 33.984375 37.640625 27.21875 
Q 31.109375 20.453125 19.1875 8.296875 
z
" id="DejaVuSans-50"/>
      </defs>
      <g transform="translate(84.926259 157.698438)scale(0.1 -0.1)">
       <use xlink:href="#DejaVuSans-8722"/>
       <use x="83.789062" xlink:href="#DejaVuSans-50"/>
      </g>
     </g>
    </g>
    <g id="xtick_3">
     <g id="line2d_3">
      <g>
       <use style="stroke:#000000;stroke-width:0.8;" x="127.841989" xlink:href="#md801d89989" y="143.1"/>
      </g>
     </g>
     <g id="text_3">
      <!-- 0 -->
      <defs>
       <path d="M 31.78125 66.40625 
Q 24.171875 66.40625 20.328125 58.90625 
Q 16.5 51.421875 16.5 36.375 
Q 16.5 21.390625 20.328125 13.890625 
Q 24.171875 6.390625 31.78125 6.390625 
Q 39.453125 6.390625 43.28125 13.890625 
Q 47.125 21.390625 47.125 36.375 
Q 47.125 51.421875 43.28125 58.90625 
Q 39.453125 66.40625 31.78125 66.40625 
z
M 31.78125 74.21875 
Q 44.046875 74.21875 50.515625 64.515625 
Q 56.984375 54.828125 56.984375 36.375 
Q 56.984375 17.96875 50.515625 8.265625 
Q 44.046875 -1.421875 31.78125 -1.421875 
Q 19.53125 -1.421875 13.0625 8.265625 
Q 6.59375 17.96875 6.59375 36.375 
Q 6.59375 54.828125 13.0625 64.515625 
Q 19.53125 74.21875 31.78125 74.21875 
z
" id="DejaVuSans-48"/>
      </defs>
      <g transform="translate(124.660739 157.698438)scale(0.1 -0.1)">
       <use xlink:href="#DejaVuSans-48"/>
      </g>
     </g>
    </g>
    <g id="xtick_4">
     <g id="line2d_4">
      <g>
       <use style="stroke:#000000;stroke-width:0.8;" x="163.386625" xlink:href="#md801d89989" y="143.1"/>
      </g>
     </g>
     <g id="text_4">
      <!-- 2 -->
      <g transform="translate(160.205375 157.698438)scale(0.1 -0.1)">
       <use xlink:href="#DejaVuSans-50"/>
      </g>
     </g>
    </g>
    <g id="xtick_5">
     <g id="line2d_5">
      <g>
       <use style="stroke:#000000;stroke-width:0.8;" x="198.931261" xlink:href="#md801d89989" y="143.1"/>
      </g>
     </g>
     <g id="text_5">
      <!-- 4 -->
      <g transform="translate(195.750011 157.698438)scale(0.1 -0.1)">
       <use xlink:href="#DejaVuSans-52"/>
      </g>
     </g>
    </g>
   </g>
   <g id="matplotlib.axis_2">
    <g id="ytick_1">
     <g id="line2d_6">
      <defs>
       <path d="M 0 0 
L -3.5 0 
" id="m21e66eec56" style="stroke:#000000;stroke-width:0.8;"/>
      </defs>
      <g>
       <use style="stroke:#000000;stroke-width:0.8;" x="30.103125" xlink:href="#m21e66eec56" y="136.922727"/>
      </g>
     </g>
     <g id="text_6">
      <!-- 0.0 -->
      <defs>
       <path d="M 10.6875 12.40625 
L 21 12.40625 
L 21 0 
L 10.6875 0 
z
" id="DejaVuSans-46"/>
      </defs>
      <g transform="translate(7.2 140.721946)scale(0.1 -0.1)">
       <use xlink:href="#DejaVuSans-48"/>
       <use x="63.623047" xlink:href="#DejaVuSans-46"/>
       <use x="95.410156" xlink:href="#DejaVuSans-48"/>
      </g>
     </g>
    </g>
    <g id="ytick_2">
     <g id="line2d_7">
      <g>
       <use style="stroke:#000000;stroke-width:0.8;" x="30.103125" xlink:href="#m21e66eec56" y="98.215656"/>
      </g>
     </g>
     <g id="text_7">
      <!-- 0.1 -->
      <defs>
       <path d="M 12.40625 8.296875 
L 28.515625 8.296875 
L 28.515625 63.921875 
L 10.984375 60.40625 
L 10.984375 69.390625 
L 28.421875 72.90625 
L 38.28125 72.90625 
L 38.28125 8.296875 
L 54.390625 8.296875 
L 54.390625 0 
L 12.40625 0 
z
" id="DejaVuSans-49"/>
      </defs>
      <g transform="translate(7.2 102.014875)scale(0.1 -0.1)">
       <use xlink:href="#DejaVuSans-48"/>
       <use x="63.623047" xlink:href="#DejaVuSans-46"/>
       <use x="95.410156" xlink:href="#DejaVuSans-49"/>
      </g>
     </g>
    </g>
    <g id="ytick_3">
     <g id="line2d_8">
      <g>
       <use style="stroke:#000000;stroke-width:0.8;" x="30.103125" xlink:href="#m21e66eec56" y="59.508584"/>
      </g>
     </g>
     <g id="text_8">
      <!-- 0.2 -->
      <g transform="translate(7.2 63.307803)scale(0.1 -0.1)">
       <use xlink:href="#DejaVuSans-48"/>
       <use x="63.623047" xlink:href="#DejaVuSans-46"/>
       <use x="95.410156" xlink:href="#DejaVuSans-50"/>
      </g>
     </g>
    </g>
    <g id="ytick_4">
     <g id="line2d_9">
      <g>
       <use style="stroke:#000000;stroke-width:0.8;" x="30.103125" xlink:href="#m21e66eec56" y="20.801513"/>
      </g>
     </g>
     <g id="text_9">
      <!-- 0.3 -->
      <defs>
       <path d="M 40.578125 39.3125 
Q 47.65625 37.796875 51.625 33 
Q 55.609375 28.21875 55.609375 21.1875 
Q 55.609375 10.40625 48.1875 4.484375 
Q 40.765625 -1.421875 27.09375 -1.421875 
Q 22.515625 -1.421875 17.65625 -0.515625 
Q 12.796875 0.390625 7.625 2.203125 
L 7.625 11.71875 
Q 11.71875 9.328125 16.59375 8.109375 
Q 21.484375 6.890625 26.8125 6.890625 
Q 36.078125 6.890625 40.9375 10.546875 
Q 45.796875 14.203125 45.796875 21.1875 
Q 45.796875 27.640625 41.28125 31.265625 
Q 36.765625 34.90625 28.71875 34.90625 
L 20.21875 34.90625 
L 20.21875 43.015625 
L 29.109375 43.015625 
Q 36.375 43.015625 40.234375 45.921875 
Q 44.09375 48.828125 44.09375 54.296875 
Q 44.09375 59.90625 40.109375 62.90625 
Q 36.140625 65.921875 28.71875 65.921875 
Q 24.65625 65.921875 20.015625 65.03125 
Q 15.375 64.15625 9.8125 62.3125 
L 9.8125 71.09375 
Q 15.4375 72.65625 20.34375 73.4375 
Q 25.25 74.21875 29.59375 74.21875 
Q 40.828125 74.21875 47.359375 69.109375 
Q 53.90625 64.015625 53.90625 55.328125 
Q 53.90625 49.265625 50.4375 45.09375 
Q 46.96875 40.921875 40.578125 39.3125 
z
" id="DejaVuSans-51"/>
      </defs>
      <g transform="translate(7.2 24.600732)scale(0.1 -0.1)">
       <use xlink:href="#DejaVuSans-48"/>
       <use x="63.623047" xlink:href="#DejaVuSans-46"/>
       <use x="95.410156" xlink:href="#DejaVuSans-51"/>
      </g>
     </g>
    </g>
   </g>
   <g id="line2d_10">
    <path clip-path="url(#p39c85727bd)" d="M 38.980398 136.881286 
L 46.977938 136.696163 
L 51.421017 136.389323 
L 54.797759 135.942063 
L 57.463608 135.376643 
L 59.774011 134.670149 
L 61.906688 133.781934 
L 63.861645 132.71667 
L 65.638875 131.494974 
L 67.416105 129.988115 
L 69.015616 128.350946 
L 70.615124 126.412747 
L 72.214631 124.140252 
L 73.814142 121.501799 
L 75.591372 118.106396 
L 77.368602 114.19183 
L 79.145837 109.736095 
L 81.10079 104.199826 
L 83.23347 97.415817 
L 85.543869 89.251621 
L 88.209719 78.944015 
L 91.941906 63.493155 
L 96.918155 42.975827 
L 99.228554 34.359179 
L 101.183511 27.902147 
L 102.783018 23.344533 
L 104.204803 19.931654 
L 105.448868 17.489786 
L 106.515206 15.829224 
L 107.581544 14.586493 
L 108.470159 13.879741 
L 109.358774 13.477598 
L 110.06967 13.377273 
L 110.780562 13.474264 
L 111.491455 13.768088 
L 112.380074 14.409813 
L 113.268685 15.351834 
L 114.335023 16.868397 
L 115.401361 18.790575 
L 116.645426 21.518192 
L 118.06721 25.226532 
L 119.666722 30.069918 
L 121.621679 36.799295 
L 123.932074 45.616131 
L 127.664261 60.912697 
L 132.285068 79.660266 
L 134.950918 89.507126 
L 137.083594 96.583618 
L 139.038543 102.337561 
L 140.815781 106.911783 
L 142.415284 110.475256 
L 144.014795 113.510718 
L 145.43658 115.77048 
L 146.858364 117.627791 
L 148.280156 119.096958 
L 149.524213 120.078118 
L 150.768278 120.78979 
L 152.012335 121.247432 
L 153.256401 121.467749 
L 154.500466 121.468481 
L 155.92225 121.224333 
L 157.344034 120.746609 
L 158.943545 119.967223 
L 160.720776 118.852151 
L 162.853452 117.251649 
L 166.052466 114.53751 
L 170.850992 110.463827 
L 173.161395 108.786279 
L 175.116352 107.62103 
L 176.893582 106.810561 
L 178.493094 106.309781 
L 180.092605 106.041906 
L 181.692108 106.016107 
L 183.291619 106.235059 
L 184.891131 106.694986 
L 186.490642 107.385986 
L 188.267864 108.405682 
L 190.22283 109.800452 
L 192.355506 111.595277 
L 195.021347 114.138 
L 199.286699 118.564935 
L 204.26296 123.656281 
L 207.284239 126.439404 
L 209.950097 128.607959 
L 212.438227 130.359832 
L 214.926341 131.843128 
L 216.525852 132.658837 
L 216.525852 132.658837 
" style="fill:none;stroke:#000000;stroke-linecap:square;stroke-width:1.5;"/>
   </g>
   <g id="patch_3">
    <path d="M 30.103125 143.1 
L 30.103125 7.2 
" style="fill:none;stroke:#000000;stroke-linecap:square;stroke-linejoin:miter;stroke-width:0.8;"/>
   </g>
   <g id="patch_4">
    <path d="M 225.403125 143.1 
L 225.403125 7.2 
" style="fill:none;stroke:#000000;stroke-linecap:square;stroke-linejoin:miter;stroke-width:0.8;"/>
   </g>
   <g id="patch_5">
    <path d="M 30.103125 143.1 
L 225.403125 143.1 
" style="fill:none;stroke:#000000;stroke-linecap:square;stroke-linejoin:miter;stroke-width:0.8;"/>
   </g>
   <g id="patch_6">
    <path d="M 30.103125 7.2 
L 225.403125 7.2 
" style="fill:none;stroke:#000000;stroke-linecap:square;stroke-linejoin:miter;stroke-width:0.8;"/>
   </g>
  </g>
 </g>
 <defs>
  <clipPath id="p39c85727bd">
   <rect height="135.9" width="195.3" x="30.103125" y="7.2"/>
  </clipPath>
 </defs>
</svg>
